<?xml version="1.0" encoding="UTF-8" standalone="no"?>
<svg
   xmlns:dc="http://purl.org/dc/elements/1.1/"
   xmlns:cc="http://creativecommons.org/ns#"
   xmlns:rdf="http://www.w3.org/1999/02/22-rdf-syntax-ns#"
   xmlns:svg="http://www.w3.org/2000/svg"
   xmlns="http://www.w3.org/2000/svg"
   xmlns:sodipodi="http://sodipodi.sourceforge.net/DTD/sodipodi-0.dtd"
   xmlns:inkscape="http://www.inkscape.org/namespaces/inkscape"
   viewBox="0 0 22 22"
   version="1.1"
   id="svg4"
   sodipodi:docname="medium_important.svg"
   inkscape:version="0.92.3 (2405546, 2018-03-11)">
  <metadata
     id="metadata10">
    <rdf:RDF>
      <cc:Work
         rdf:about="">
        <dc:format>image/svg+xml</dc:format>
        <dc:type
           rdf:resource="http://purl.org/dc/dcmitype/StillImage" />
        <dc:title></dc:title>
      </cc:Work>
    </rdf:RDF>
  </metadata>
  <defs
     id="defs8" />
  <sodipodi:namedview
     pagecolor="#ffffff"
     bordercolor="#666666"
     borderopacity="1"
     objecttolerance="10"
     gridtolerance="10"
     guidetolerance="10"
     inkscape:pageopacity="0"
     inkscape:pageshadow="2"
     inkscape:window-width="1920"
     inkscape:window-height="1080"
     id="namedview6"
     showgrid="true"
     inkscape:zoom="5.3636366"
     inkscape:cx="-63.067714"
     inkscape:cy="32.500116"
     inkscape:window-x="0"
     inkscape:window-y="0"
     inkscape:window-maximized="0"
     inkscape:current-layer="svg4">
    <inkscape:grid
       type="xygrid"
       id="grid819"
       spacingx="0.5"
       spacingy="0.5" />
  </sodipodi:namedview>
  <path
     style="opacity:1;fill:#ffcc00;fill-opacity:1;fill-rule:nonzero;stroke:none;stroke-width:3;stroke-linecap:round;stroke-linejoin:miter;stroke-miterlimit:4;stroke-dasharray:none;stroke-dashoffset:0;stroke-opacity:1"
     d="M 4 3 C 3.446 3 3 3.446 3 4 L 3 18 C 3 18.554 3.446 19 4 19 L 18 19 C 18.554 19 19 18.554 19 18 L 19 4 C 19 3.446 18.554 3 18 3 L 4 3 z M 9.5 5 L 12.5 5 L 12.5 13.5 L 9.5 13.5 L 9.5 5 z M 9.5 15 L 12.5 15 L 12.5 17.5 L 9.5 17.5 L 9.5 15 z "
     id="rect821" />
  <path
     style="fill:#1a1a1a;stroke-width:0.02330508"
     d="M 9.511996,9.2393817 V 4.9978564 h 1.491525 1.491526 V 9.2393817 13.480907 H 11.003521 9.511996 Z"
     id="path3711"
     inkscape:connector-curvature="0" />
  <path
     style="fill:#1a1a1a;stroke-width:0.02330508"
     d="m 9.511996,16.254212 v -1.23517 h 1.491525 1.491526 v 1.23517 1.235169 H 11.003521 9.511996 Z"
     id="path3713"
     inkscape:connector-curvature="0" />
</svg>
